<?xml version="1.0" encoding="UTF-8"?><svg id="Layer_2" xmlns="http://www.w3.org/2000/svg" viewBox="0 0 210.82 65.96"><defs><style>.cls-1{fill:#fff;}.cls-2{fill:#01ffab;}</style></defs><g id="Layer_1-2"><g><path class="cls-1" d="M210.82,38.93l-3.62,6.74c-.84-.56-2.12-.95-3.46-.95-3.51,0-5.46,2.29-5.46,7.3v13.32h-7.58v-27.48h7.64v4.35c1.23-3.12,4.12-4.96,7.13-4.96,1.84,0,3.51,.5,5.35,1.67Z"/><path class="cls-2" d="M16.74,50.57l4.29,4.29h0c3.44,3.44,9.02,3.44,12.45,0h0l-16.75-16.74L0,54.85H0c3.44,3.44,9.02,3.44,12.45,0l4.29-4.29Z"/><path class="cls-2" d="M16.74,31.51l4.29,4.29h0c3.44,3.44,9.02,3.44,12.45,0h0L16.74,19.06,0,35.8H0c3.44,3.44,9.02,3.44,12.45,0l4.29-4.29Z"/><path class="cls-2" d="M16.74,12.45l4.29,4.29h0c3.44,3.44,9.02,3.44,12.45,0h0L16.74,0,0,16.74H0c3.44,3.44,9.02,3.44,12.45,0l4.29-4.29Z"/><path class="cls-1" d="M39.87,51.69c0-7.25,4.35-14.44,13.54-14.44,5.63,0,9.98,2.68,12.04,8.25l-7.13,2.84c-.56-2.73-2.45-4.52-4.91-4.52-4.29,0-5.8,3.9-5.8,7.86s1.45,7.64,5.74,7.64c2.45,0,4.4-1.67,5.02-4.35l6.8,2.68c-1.84,5.13-6.13,8.3-11.7,8.3-9.31,0-13.6-7.13-13.6-14.27Z"/><path class="cls-1" d="M68.05,51.58c0-7.69,5.18-14.32,13.93-14.32s13.93,6.63,13.93,14.32-5.3,14.38-13.93,14.38-13.93-6.74-13.93-14.38Zm20.34,0c0-4.01-1.56-7.75-6.41-7.75s-6.41,3.73-6.41,7.75,1.56,7.75,6.41,7.75,6.41-3.79,6.41-7.75Z"/><path class="cls-1" d="M125.36,47.34v18h-7.52v-15.61c0-2.01,0-5.91-4.74-5.91-5.69,0-5.69,5.63-5.69,9.59v11.93h-7.58v-27.48h7.58v2.84c2.01-2.56,4.91-3.46,8.03-3.46,6.3,0,9.92,3.79,9.92,10.09Z"/><rect class="cls-1" x="131" y="26.5" width="7.8" height="6.86"/><rect class="cls-1" x="12.84" y="58.49" width="7.8" height="6.86"/><rect class="cls-1" x="131.11" y="37.87" width="7.58" height="27.48"/><path class="cls-1" d="M144.74,43.77l.06-5.91v-2.79c0-7.3,4.12-9.2,8.69-9.2,2.29,0,3.9,.5,5.46,1.17l-2.4,5.8c-.67-.39-1.39-.67-2.23-.67-1.9,0-2.06,1.67-2.06,2.9v2.79h5.96v5.91h-5.96v14.05c0,4.16-3.37,7.52-7.52,7.52h0v-21.57Z"/><path class="cls-1" d="M186.46,54.14h-18.45c.33,2.9,2.29,4.96,6.24,4.96,2.29,0,4.46-.78,6.19-2.84l5.24,4.63c-2.95,3.29-6.74,5.07-11.48,5.07-9.81,0-13.71-7.02-13.71-14.21s3.79-14.49,13.27-14.49c8.58,0,12.88,6.24,12.88,14.27,0,.84-.06,1.62-.17,2.62Zm-7.02-5.74c-.11-3.01-2.62-4.85-5.74-4.85-3.85,0-5.41,2.62-5.74,4.85h11.48Z"/></g></g></svg>